<svg width="40" height="40" viewBox="0 0 40 40" fill="none" xmlns="http://www.w3.org/2000/svg">
<circle cx="20" cy="20" r="19" stroke="white" stroke-width="2"/>
<path d="M20.0002 20.4485C23.1616 20.4485 25.7244 17.8857 25.7244 14.7243C25.7244 11.5628 23.1616 9 20.0002 9C16.8387 9 14.2759 11.5628 14.2759 14.7243C14.2759 17.8857 16.8387 20.4485 20.0002 20.4485Z" stroke="white" stroke-width="2"/>
<path d="M25.7243 22.7383H26.1269C27.859 22.7383 29.32 24.0281 29.5349 25.7468L29.982 29.3234C30.1528 30.69 29.0872 31.8971 27.7099 31.8971H12.29C10.9128 31.8971 9.84719 30.69 10.018 29.3234L10.4651 25.7468C10.6799 24.0281 12.141 22.7383 13.8731 22.7383H14.2757" stroke="white" stroke-width="2" stroke-linecap="round" stroke-linejoin="round"/>
</svg>
