<svg width="40" height="40" viewBox="0 0 40 40" fill="none" xmlns="http://www.w3.org/2000/svg">
<path d="M15.0002 36.6666C15.9206 36.6666 16.6668 35.9205 16.6668 35C16.6668 34.0795 15.9206 33.3333 15.0002 33.3333C14.0797 33.3333 13.3335 34.0795 13.3335 35C13.3335 35.9205 14.0797 36.6666 15.0002 36.6666Z" stroke="white" stroke-width="2" stroke-linecap="round" stroke-linejoin="round"/>
<path d="M33.3332 36.6666C34.2536 36.6666 34.9998 35.9205 34.9998 35C34.9998 34.0795 34.2536 33.3333 33.3332 33.3333C32.4127 33.3333 31.6665 34.0795 31.6665 35C31.6665 35.9205 32.4127 36.6666 33.3332 36.6666Z" stroke="white" stroke-width="2" stroke-linecap="round" stroke-linejoin="round"/>
<path d="M1.6665 1.66669H8.33317L12.7998 23.9834C12.9522 24.7507 13.3697 25.44 13.9791 25.9305C14.5885 26.4211 15.351 26.6817 16.1332 26.6667H32.3332C33.1153 26.6817 33.8779 26.4211 34.4873 25.9305C35.0967 25.44 35.5141 24.7507 35.6665 23.9834L38.3332 10H9.99984" stroke="white" stroke-width="2" stroke-linecap="round" stroke-linejoin="round"/>
</svg>
