<svg width="32" height="32" viewBox="0 0 32 32" fill="none" xmlns="http://www.w3.org/2000/svg">
<path d="M25.1428 9.86665C25.1428 7.60347 24.1795 5.43298 22.4649 3.83267C20.7503 2.23236 18.4248 1.33331 15.9999 1.33331C13.5751 1.33331 11.2496 2.23236 9.53495 3.83267C7.82034 5.43298 6.85707 7.60347 6.85707 9.86665C6.85707 19.8222 2.28564 22.6666 2.28564 22.6666H29.7142C29.7142 22.6666 25.1428 19.8222 25.1428 9.86665Z" stroke="white" stroke-width="2" stroke-linecap="round" stroke-linejoin="round"/>
<path d="M19.0474 28C18.7377 28.8111 18.2931 29.4843 17.7583 29.9523C17.2234 30.4203 16.617 30.6667 15.9998 30.6667C15.3825 30.6667 14.7761 30.4203 14.2413 29.9523C13.7064 29.4843 13.2619 28.8111 12.9521 28" stroke="white" stroke-width="2" stroke-linecap="round" stroke-linejoin="round"/>
</svg>
