<svg width="160" height="60" viewBox="0 0 160 60" fill="none" xmlns="http://www.w3.org/2000/svg">
<path d="M67.7344 32.2852V28.9219C67.7344 28.4609 67.6445 28.0273 67.4648 27.6211C67.293 27.207 67.0547 26.8477 66.75 26.543C66.4453 26.2383 66.0859 26 65.6719 25.8281C65.2656 25.6484 64.832 25.5586 64.3711 25.5586C63.9102 25.5586 63.4727 25.6484 63.0586 25.8281C62.6523 26 62.2969 26.2383 61.9922 26.543C61.6875 26.8477 61.4453 27.207 61.2656 27.6211C61.0938 28.0273 61.0078 28.4609 61.0078 28.9219V32.2852H67.7344ZM71.0977 39H67.7344V35.6367H61.0078V39H57.6562V28.9219C57.6562 27.9922 57.832 27.1211 58.1836 26.3086C58.5352 25.4883 59.0117 24.7734 59.6133 24.1641C60.2227 23.5547 60.9336 23.0742 61.7461 22.7227C62.5664 22.3711 63.4414 22.1953 64.3711 22.1953C65.3008 22.1953 66.1719 22.3711 66.9844 22.7227C67.8047 23.0742 68.5195 23.5547 69.1289 24.1641C69.7383 24.7734 70.2188 25.4883 70.5703 26.3086C70.9219 27.1211 71.0977 27.9922 71.0977 28.9219V39ZM76.875 39H73.6758V26.4492H74.4492L75.5039 27.9375C76.0195 27.4688 76.6055 27.1094 77.2617 26.8594C77.918 26.6016 78.5977 26.4727 79.3008 26.4727H82.125V29.6602H79.3008C78.9648 29.6602 78.6484 29.7227 78.3516 29.8477C78.0547 29.9727 77.7969 30.1445 77.5781 30.3633C77.3594 30.582 77.1875 30.8398 77.0625 31.1367C76.9375 31.4336 76.875 31.75 76.875 32.0859V39ZM89.9062 39C89.1328 39 88.4062 38.8555 87.7266 38.5664C87.0469 38.2695 86.4492 37.8672 85.9336 37.3594C85.4258 36.8438 85.0234 36.2461 84.7266 35.5664C84.4375 34.8867 84.293 34.1602 84.293 33.3867V29.6602H82.7344V26.4727H84.293V21.457H87.4805V26.4727H92.332V29.6602H87.4805V33.3867C87.4805 33.7227 87.543 34.0391 87.668 34.3359C87.793 34.625 87.9648 34.8789 88.1836 35.0977C88.4023 35.3164 88.6602 35.4922 88.957 35.625C89.2539 35.75 89.5703 35.8125 89.9062 35.8125H92.332V39H89.9062ZM99.1289 35.9297C99.2539 35.9688 99.3789 35.9961 99.5039 36.0117C99.6289 36.0195 99.7539 36.0234 99.8789 36.0234C100.191 36.0234 100.492 35.9805 100.781 35.8945C101.07 35.8086 101.34 35.6875 101.59 35.5312C101.848 35.3672 102.074 35.1719 102.27 34.9453C102.473 34.7109 102.637 34.4531 102.762 34.1719L105.105 36.5273C104.809 36.9492 104.465 37.3281 104.074 37.6641C103.691 38 103.273 38.2852 102.82 38.5195C102.375 38.7539 101.902 38.9297 101.402 39.0469C100.91 39.1719 100.402 39.2344 99.8789 39.2344C98.9961 39.2344 98.1641 39.0703 97.3828 38.7422C96.6094 38.4141 95.9297 37.957 95.3438 37.3711C94.7656 36.7852 94.3086 36.0898 93.9727 35.2852C93.6367 34.4727 93.4688 33.582 93.4688 32.6133C93.4688 31.6211 93.6367 30.7148 93.9727 29.8945C94.3086 29.0742 94.7656 28.375 95.3438 27.7969C95.9297 27.2188 96.6094 26.7695 97.3828 26.4492C98.1641 26.1289 98.9961 25.9688 99.8789 25.9688C100.402 25.9688 100.914 26.0312 101.414 26.1562C101.914 26.2812 102.387 26.4609 102.832 26.6953C103.285 26.9297 103.707 27.2188 104.098 27.5625C104.488 27.8984 104.832 28.2773 105.129 28.6992L99.1289 35.9297ZM100.77 29.332C100.621 29.2773 100.473 29.2422 100.324 29.2266C100.184 29.2109 100.035 29.2031 99.8789 29.2031C99.4414 29.2031 99.0273 29.2852 98.6367 29.4492C98.2539 29.6055 97.918 29.832 97.6289 30.1289C97.3477 30.4258 97.125 30.7852 96.9609 31.207C96.7969 31.6211 96.7148 32.0898 96.7148 32.6133C96.7148 32.7305 96.7188 32.8633 96.7266 33.0117C96.7422 33.1602 96.7617 33.3125 96.7852 33.4688C96.8164 33.6172 96.8516 33.7617 96.8906 33.9023C96.9297 34.043 96.9805 34.168 97.043 34.2773L100.77 29.332ZM118.805 39H118.031L116.789 37.2773C116.484 37.5508 116.16 37.8086 115.816 38.0508C115.48 38.2852 115.125 38.4922 114.75 38.6719C114.375 38.8438 113.988 38.9805 113.59 39.082C113.199 39.1836 112.801 39.2344 112.395 39.2344C111.512 39.2344 110.68 39.0859 109.898 38.7891C109.125 38.4922 108.445 38.0625 107.859 37.5C107.281 36.9297 106.824 36.2344 106.488 35.4141C106.152 34.5938 105.984 33.6602 105.984 32.6133C105.984 31.6367 106.152 30.7422 106.488 29.9297C106.824 29.1094 107.281 28.4062 107.859 27.8203C108.445 27.2344 109.125 26.7812 109.898 26.4609C110.68 26.1328 111.512 25.9688 112.395 25.9688C112.801 25.9688 113.203 26.0195 113.602 26.1211C114 26.2227 114.387 26.3633 114.762 26.543C115.137 26.7227 115.492 26.9336 115.828 27.1758C116.172 27.418 116.492 27.6797 116.789 27.9609L118.031 26.4727H118.805V39ZM115.582 32.6133C115.582 32.1758 115.496 31.7539 115.324 31.3477C115.16 30.9336 114.934 30.5703 114.645 30.2578C114.355 29.9375 114.016 29.6836 113.625 29.4961C113.242 29.3008 112.832 29.2031 112.395 29.2031C111.957 29.2031 111.543 29.2773 111.152 29.4258C110.77 29.5742 110.434 29.793 110.145 30.082C109.863 30.3711 109.641 30.7305 109.477 31.1602C109.312 31.582 109.23 32.0664 109.23 32.6133C109.23 33.1602 109.312 33.6484 109.477 34.0781C109.641 34.5 109.863 34.8555 110.145 35.1445C110.434 35.4336 110.77 35.6523 111.152 35.8008C111.543 35.9492 111.957 36.0234 112.395 36.0234C112.832 36.0234 113.242 35.9297 113.625 35.7422C114.016 35.5469 114.355 35.293 114.645 34.9805C114.934 34.6602 115.16 34.2969 115.324 33.8906C115.496 33.4766 115.582 33.0508 115.582 32.6133ZM128.145 39H120.832V35.8125H128.145C128.363 35.8125 128.551 35.7344 128.707 35.5781C128.863 35.4219 128.941 35.2344 128.941 35.0156C128.941 34.7891 128.863 34.6406 128.707 34.5703C128.551 34.5 128.363 34.4648 128.145 34.4648H124.816C124.262 34.4648 123.742 34.3594 123.258 34.1484C122.773 33.9375 122.352 33.6523 121.992 33.293C121.633 32.9258 121.348 32.5 121.137 32.0156C120.934 31.5312 120.832 31.0117 120.832 30.457C120.832 29.9023 120.934 29.3828 121.137 28.8984C121.348 28.4141 121.633 27.9922 121.992 27.6328C122.352 27.2734 122.773 26.9922 123.258 26.7891C123.742 26.5781 124.262 26.4727 124.816 26.4727H131.297V29.6602H124.816C124.598 29.6602 124.41 29.7383 124.254 29.8945C124.098 30.0508 124.02 30.2383 124.02 30.457C124.02 30.6836 124.098 30.8789 124.254 31.043C124.41 31.1992 124.598 31.2773 124.816 31.2773H128.145C128.691 31.2773 129.207 31.3711 129.691 31.5586C130.176 31.7383 130.598 31.9922 130.957 32.3203C131.316 32.6484 131.602 33.043 131.812 33.5039C132.023 33.9648 132.129 34.4688 132.129 35.0156C132.129 35.5703 132.023 36.0898 131.812 36.5742C131.602 37.0508 131.316 37.4727 130.957 37.8398C130.598 38.1992 130.176 38.4844 129.691 38.6953C129.207 38.8984 128.691 39 128.145 39ZM138.832 35.9297C138.957 35.9688 139.082 35.9961 139.207 36.0117C139.332 36.0195 139.457 36.0234 139.582 36.0234C139.895 36.0234 140.195 35.9805 140.484 35.8945C140.773 35.8086 141.043 35.6875 141.293 35.5312C141.551 35.3672 141.777 35.1719 141.973 34.9453C142.176 34.7109 142.34 34.4531 142.465 34.1719L144.809 36.5273C144.512 36.9492 144.168 37.3281 143.777 37.6641C143.395 38 142.977 38.2852 142.523 38.5195C142.078 38.7539 141.605 38.9297 141.105 39.0469C140.613 39.1719 140.105 39.2344 139.582 39.2344C138.699 39.2344 137.867 39.0703 137.086 38.7422C136.312 38.4141 135.633 37.957 135.047 37.3711C134.469 36.7852 134.012 36.0898 133.676 35.2852C133.34 34.4727 133.172 33.582 133.172 32.6133C133.172 31.6211 133.34 30.7148 133.676 29.8945C134.012 29.0742 134.469 28.375 135.047 27.7969C135.633 27.2188 136.312 26.7695 137.086 26.4492C137.867 26.1289 138.699 25.9688 139.582 25.9688C140.105 25.9688 140.617 26.0312 141.117 26.1562C141.617 26.2812 142.09 26.4609 142.535 26.6953C142.988 26.9297 143.41 27.2188 143.801 27.5625C144.191 27.8984 144.535 28.2773 144.832 28.6992L138.832 35.9297ZM140.473 29.332C140.324 29.2773 140.176 29.2422 140.027 29.2266C139.887 29.2109 139.738 29.2031 139.582 29.2031C139.145 29.2031 138.73 29.2852 138.34 29.4492C137.957 29.6055 137.621 29.832 137.332 30.1289C137.051 30.4258 136.828 30.7852 136.664 31.207C136.5 31.6211 136.418 32.0898 136.418 32.6133C136.418 32.7305 136.422 32.8633 136.43 33.0117C136.445 33.1602 136.465 33.3125 136.488 33.4688C136.52 33.6172 136.555 33.7617 136.594 33.9023C136.633 34.043 136.684 34.168 136.746 34.2773L140.473 29.332ZM158.484 39H157.711L156.469 37.2773C156.164 37.5508 155.84 37.8086 155.496 38.0508C155.16 38.2852 154.805 38.4922 154.43 38.6719C154.055 38.8438 153.668 38.9805 153.27 39.082C152.879 39.1836 152.48 39.2344 152.074 39.2344C151.191 39.2344 150.359 39.0703 149.578 38.7422C148.805 38.4062 148.125 37.9453 147.539 37.3594C146.961 36.7656 146.504 36.0664 146.168 35.2617C145.832 34.4492 145.664 33.5664 145.664 32.6133C145.664 31.668 145.832 30.7891 146.168 29.9766C146.504 29.1641 146.961 28.4609 147.539 27.8672C148.125 27.2734 148.805 26.8086 149.578 26.4727C150.359 26.1367 151.191 25.9688 152.074 25.9688C152.355 25.9688 152.645 25.9922 152.941 26.0391C153.246 26.0859 153.539 26.1641 153.82 26.2734C154.109 26.375 154.379 26.5117 154.629 26.6836C154.879 26.8555 155.09 27.0664 155.262 27.3164V21.457H158.484V39ZM155.262 32.6133C155.262 32.1758 155.176 31.7539 155.004 31.3477C154.84 30.9336 154.613 30.5703 154.324 30.2578C154.035 29.9375 153.695 29.6836 153.305 29.4961C152.922 29.3008 152.512 29.2031 152.074 29.2031C151.637 29.2031 151.223 29.2812 150.832 29.4375C150.449 29.5938 150.113 29.8203 149.824 30.1172C149.543 30.4062 149.32 30.7617 149.156 31.1836C148.992 31.6055 148.91 32.082 148.91 32.6133C148.91 33.0742 148.992 33.5117 149.156 33.9258C149.32 34.3398 149.543 34.7031 149.824 35.0156C150.113 35.3281 150.449 35.5742 150.832 35.7539C151.223 35.9336 151.637 36.0234 152.074 36.0234C152.512 36.0234 152.922 35.9297 153.305 35.7422C153.695 35.5469 154.035 35.293 154.324 34.9805C154.613 34.6602 154.84 34.2969 155.004 33.8906C155.176 33.4766 155.262 33.0508 155.262 32.6133Z" fill="white"/>
<path d="M36.1889 0L5.34628 20.8977L10.6926 27.8917L22.0139 25.3477L0 35.8394L5.03153 44.7409L22.0139 42.8326L10.3231 46.5477L14.3946 55.7242L35.2507 60L32.7064 51.0333L28.3036 49.5091L44 44.9606L39.8221 36.0917L21.5417 38.6871L43.0842 26.9371L38.9962 17.4L26.7306 17.7182L40.5025 7.86288L36.1889 0Z" fill="#D6EC7E"/>
</svg>
