<svg width="32" height="36" viewBox="0 0 32 36" fill="none" xmlns="http://www.w3.org/2000/svg">
<path d="M31.684 14.625C31.8884 15.8285 32 17.0886 32 18.4048C32 28.6874 25.7558 36 16.3268 36C7.30643 36 0 27.9448 0 18C0 8.05515 7.30643 0 16.3268 0C20.7354 0 24.4185 1.78859 27.2456 4.69113L22.6428 9.76515V9.75358C20.9288 7.95341 18.7554 7.03113 16.3268 7.03113C10.9392 7.03113 6.56154 12.0486 6.56154 17.989C6.56154 23.928 10.9392 28.9576 16.3268 28.9576C21.2149 28.9576 24.5411 25.8749 25.2258 21.6452H16.3268V14.625H31.684Z" fill="white"/>
</svg>
