<svg width="32" height="36" viewBox="0 0 32 36" fill="none" xmlns="http://www.w3.org/2000/svg">
<path fill-rule="evenodd" clip-rule="evenodd" d="M9.40355 0.108C11.1102 0.0199963 11.6542 0 16 0C20.3466 0 20.8897 0.0209945 22.5955 0.108C24.2995 0.195005 25.4631 0.500007 26.4809 0.945C27.5484 1.39714 28.5153 2.10557 29.3146 3.02101C30.1284 3.92007 30.7583 5.00803 31.16 6.209C31.5555 7.354 31.8257 8.66301 31.904 10.579C31.9823 12.499 32 13.111 32 18C32 22.889 31.9814 23.501 31.904 25.4211C31.8266 27.3369 31.5555 28.646 31.16 29.791C30.7511 30.9741 30.2035 31.979 29.3146 32.9789C28.5155 33.8945 27.5484 34.603 26.4809 35.055C25.4631 35.4999 24.2995 35.804 22.5965 35.892C20.8897 35.98 20.3457 36 16 36C11.6542 36 11.1102 35.9791 9.40355 35.892C7.70045 35.8049 6.53689 35.4999 5.51911 35.055C4.46755 34.595 3.57423 33.9789 2.68534 32.9789C1.87148 32.0799 1.24172 30.9919 0.84 29.791C0.444451 28.646 0.174225 27.3369 0.096 25.4211C0.0177745 23.501 0 22.8899 0 18C0 13.11 0.0186618 12.499 0.096 10.58C0.173338 8.66301 0.444451 7.354 0.84 6.209C1.24191 5.00811 1.87162 3.9202 2.68534 3.02101C3.48449 2.10541 4.45156 1.39693 5.51911 0.945C6.53689 0.500007 7.70045 0.196004 9.40355 0.108ZM22.4657 3.348C20.7786 3.26199 20.272 3.24299 16 3.24299C11.728 3.24299 11.2213 3.26199 9.53423 3.348C7.97423 3.428 7.12711 3.72099 6.56355 3.968C5.81689 4.294 5.28355 4.68399 4.72355 5.31399C4.16445 5.94399 3.81689 6.544 3.52711 7.38399C3.30755 8.018 3.04711 8.971 2.976 10.726C2.89955 12.624 2.88266 13.194 2.88266 18C2.88266 22.806 2.89955 23.3759 2.976 25.274C3.04711 27.029 3.30755 27.982 3.52711 28.6161C3.78343 29.3979 4.19228 30.1052 4.72355 30.6861C5.23977 31.2837 5.86852 31.7437 6.56355 32.032C7.12711 32.2791 7.97423 32.572 9.53423 32.652C11.2213 32.7381 11.7271 32.7571 16 32.7571C20.2729 32.7571 20.7786 32.7381 22.4657 32.652C24.0257 32.572 24.8729 32.2791 25.4365 32.032C26.1831 31.706 26.7165 31.3161 27.2765 30.6861C27.8077 30.1053 28.2166 29.3979 28.4729 28.6161C28.6925 27.982 28.9529 27.029 29.024 25.274C29.1005 23.3759 29.1174 22.806 29.1174 18C29.1174 13.194 29.1005 12.624 29.024 10.726C28.9529 8.971 28.6925 8.018 28.4729 7.38399C28.1831 6.544 27.8365 5.94399 27.2765 5.31399C26.7165 4.68501 26.1831 4.294 25.4365 3.968C24.8729 3.72099 24.0257 3.428 22.4657 3.348ZM13.9571 23.5487C14.6048 23.8507 15.2989 24.0059 16 24.0059C17.416 24.0059 18.7738 23.3732 19.775 22.2469C20.7763 21.1205 21.3388 19.5928 21.3388 18C21.3388 16.4072 20.7763 14.8795 19.775 13.7531C18.7738 12.6268 17.416 11.994 16 11.994C15.2989 11.994 14.6048 12.1493 13.9571 12.4512C13.3092 12.753 12.7208 13.1954 12.225 13.7531C11.7293 14.3108 11.336 14.9729 11.0678 15.7016C10.7995 16.4302 10.6614 17.2113 10.6614 18C10.6614 18.7887 10.7995 19.5698 11.0678 20.2984C11.336 21.0271 11.7293 21.6892 12.225 22.2469C12.7208 22.8045 13.3092 23.247 13.9571 23.5487ZM10.1848 11.4578C11.7271 9.72275 13.8189 8.74798 16 8.74798C18.1812 8.74798 20.273 9.72275 21.8153 11.4578C23.3575 13.1929 24.224 15.5463 24.224 18C24.224 20.4537 23.3575 22.807 21.8153 24.5422C20.273 26.2772 18.1812 27.252 16 27.252C13.8189 27.252 11.7271 26.2772 10.1848 24.5422C8.6425 22.807 7.77604 20.4537 7.77604 18C7.77604 15.5463 8.6425 13.1929 10.1848 11.4578ZM26.0476 10.1264C26.4121 9.71628 26.6169 9.16002 26.6169 8.57999C26.6169 7.99995 26.4121 7.44369 26.0476 7.03355C25.6829 6.62341 25.1885 6.39299 24.6729 6.39299C24.1574 6.39299 23.6628 6.62341 23.2983 7.03355C22.9337 7.44369 22.7289 7.99995 22.7289 8.57999C22.7289 9.16002 22.9337 9.71628 23.2983 10.1264C23.6628 10.5366 24.1574 10.767 24.6729 10.767C25.1885 10.767 25.6829 10.5366 26.0476 10.1264Z" fill="black"/>
</svg>
