<svg width="32" height="32" viewBox="0 0 32 32" fill="none" xmlns="http://www.w3.org/2000/svg">
<path d="M19.7673 18.2396C20.135 18.3834 20.4942 18.5479 20.8433 18.7323C21.2759 18.9608 21.4414 19.4967 21.2129 19.9294C20.9844 20.362 20.4484 20.5275 20.0158 20.299C18.7712 19.6418 17.3828 19.2934 15.9422 19.2934C11.7403 19.2934 8.15609 22.2818 7.36987 26.3542C7.27712 26.8346 6.81246 27.1489 6.33206 27.0561C5.85162 26.9634 5.53737 26.4987 5.63012 26.0183C6.32503 22.4189 8.83356 19.5247 12.1185 18.2404C9.72734 16.9008 8.11124 14.3436 8.11124 11.4091C8.11124 7.08673 11.6174 3.58301 15.9422 3.58301C20.267 3.58301 23.7732 7.08676 23.7732 11.4091C23.7732 14.343 22.1577 16.8998 19.7673 18.2396ZM22.0013 11.4091C22.0013 8.0656 19.2887 5.35488 15.9422 5.35488C12.5957 5.35488 9.88312 8.06557 9.88312 11.4091C9.88312 14.7526 12.5957 17.4633 15.9422 17.4633C19.2887 17.4633 22.0013 14.7526 22.0013 11.4091ZM22.398 22.2457V19.5886C22.3977 19.4313 22.4395 19.2768 22.5189 19.141C22.5959 19.0095 22.7054 18.9001 22.8369 18.8231C22.9727 18.7436 23.1272 18.7019 23.2845 18.7021C23.4418 18.7019 23.5964 18.7436 23.7322 18.8231C23.8636 18.9001 23.9731 19.0096 24.0501 19.141C24.1296 19.2768 24.1713 19.4313 24.171 19.5886V22.2457H26.8016C27.2909 22.2457 27.6875 22.6423 27.6875 23.1316C27.6875 23.6208 27.2909 24.0174 26.8016 24.0174H24.171V26.6449C24.1713 26.8023 24.1295 26.9568 24.0501 27.0926C23.9731 27.224 23.8636 27.3335 23.7322 27.4105C23.5964 27.49 23.4418 27.5317 23.2845 27.5314C23.1272 27.5317 22.9727 27.49 22.8369 27.4105C22.7054 27.3335 22.5959 27.224 22.5189 27.0926C22.4395 26.9568 22.3977 26.8023 22.398 26.6449V24.0174H19.7379C19.2486 24.0174 18.852 23.6208 18.852 23.1316C18.852 22.6423 19.2486 22.2457 19.7379 22.2457H22.398Z" fill="white"/>
</svg>
